HIERARCHY
ROOT hip
{
  OFFSET 0 0 0
  CHANNELS 6 Xposition Yposition Zposition Zrotation Yrotation Xrotation
  JOINT abdomen
  {
    OFFSET 0 20.6881 -0.73152
    CHANNELS 3 Zrotation Xrotation Yrotation
    JOINT chest
    {
      OFFSET 0 11.7043 -0.48768
      CHANNELS 3 Zrotation Xrotation Yrotation
      JOINT neck
      {
        OFFSET 0 22.1894 -2.19456
        CHANNELS 3 Zrotation Xrotation Yrotation
        JOINT head
        {
          OFFSET -0.24384 7.07133 1.2192
          CHANNELS 3 Zrotation Xrotation Yrotation
          JOINT leftEye
          {
            OFFSET 4.14528 8.04674 8.04672
            CHANNELS 3 Zrotation Xrotation Yrotation
            End Site
            {
              OFFSET 1 0 0
            }
          }
          JOINT rightEye
          {
            OFFSET -3.6576 8.04674 8.04672
            CHANNELS 3 Zrotation Xrotation Yrotation
            End Site
            {
              OFFSET 1 0 0
            }
          }
        }
      }
      JOINT rCollar
      {
        OFFSET -2.68224 19.2634 -4.8768
        CHANNELS 3 Zrotation Xrotation Yrotation
        JOINT rShldr
        {
          OFFSET -8.77824 -1.95073 1.46304
          CHANNELS 3 Zrotation Xrotation Yrotation
          JOINT rForeArm
          {
            OFFSET -28.1742 -1.7115 0.48768
            CHANNELS 3 Zrotation Xrotation Yrotation
            JOINT rHand
            {
              OFFSET -22.5879 0.773209 7.07136
              CHANNELS 3 Zrotation Xrotation Yrotation
              JOINT rThumb1
              {
                OFFSET -1.2192 -0.487915 3.41376
                CHANNELS 3 Zrotation Xrotation Yrotation
                JOINT rThumb2
                {
                  OFFSET -3.37035 -0.52449 3.41376
                  CHANNELS 3 Zrotation Xrotation Yrotation
                  End Site
                  {
                    OFFSET -1.78271 -1.18214 1.43049
                  }
                }
              }
              JOINT rIndex1
              {
                OFFSET -7.75947 0.938293 5.60832
                CHANNELS 3 Zrotation Xrotation Yrotation
                JOINT rIndex2
                {
                  OFFSET -2.54057 -0.884171 1.56538
                  CHANNELS 3 Zrotation Xrotation Yrotation
                  End Site
                  {
                    OFFSET -1.62519 -0.234802 1.16502
                  }
                }
              }
              JOINT rMid1
              {
                OFFSET -8.24714 1.18213 3.41376
                CHANNELS 3 Zrotation Xrotation Yrotation
                JOINT rMid2
                {
                  OFFSET -3.10165 -0.590103 1.0647
                  CHANNELS 3 Zrotation Xrotation Yrotation
                  End Site
                  {
                    OFFSET -2.48547 -0.328903 0.83742
                  }
                }
              }
              JOINT rRing1
              {
                OFFSET -8.82822 0.546677 1.51678
                CHANNELS 3 Zrotation Xrotation Yrotation
                JOINT rRing2
                {
                  OFFSET -2.60934 -0.819778 -0.0198488
                  CHANNELS 3 Zrotation Xrotation Yrotation
                  End Site
                  {
                    OFFSET -2.33842 -0.294052 0.168128
                  }
                }
              }
              JOINT rPinky1
              {
                OFFSET -8.27202 -0.0477905 -0.4584
                CHANNELS 3 Zrotation Xrotation Yrotation
                JOINT rPinky2
                {
                  OFFSET -1.82734 -0.647385 -0.700984
                  CHANNELS 3 Zrotation Xrotation Yrotation
                  End Site
                  {
                    OFFSET -1.69225 -0.51767 -0.607171
                  }
                }
              }
            }
          }
        }
      }
      JOINT lCollar
      {
        OFFSET 2.68224 19.2634 -4.8768
        CHANNELS 3 Zrotation Xrotation Yrotation
        JOINT lShldr
        {
          OFFSET 8.77824 -1.95073 1.46304
          CHANNELS 3 Zrotation Xrotation Yrotation
          JOINT lForeArm
          {
            OFFSET 28.1742 -1.7115 0.48768
            CHANNELS 3 Zrotation Xrotation Yrotation
            JOINT lHand
            {
              OFFSET 22.5879 0.773209 7.07136
              CHANNELS 3 Zrotation Xrotation Yrotation
              JOINT lThumb1
              {
                OFFSET 1.2192 -0.487915 3.41376
                CHANNELS 3 Zrotation Xrotation Yrotation
                JOINT lThumb2
                {
                  OFFSET 3.37035 -0.52449 3.41376
                  CHANNELS 3 Zrotation Xrotation Yrotation
                  End Site
                  {
                    OFFSET 1.78271 -1.18214 1.43049
                  }
                }
              }
              JOINT lIndex1
              {
                OFFSET 7.75947 0.938293 5.60832
                CHANNELS 3 Zrotation Xrotation Yrotation
                JOINT lIndex2
                {
                  OFFSET 2.54057 -0.884171 1.56538
                  CHANNELS 3 Zrotation Xrotation Yrotation
                  End Site
                  {
                    OFFSET 1.62519 -0.234802 1.16502
                  }
                }
              }
              JOINT lMid1
              {
                OFFSET 8.24714 1.18213 3.41376
                CHANNELS 3 Zrotation Xrotation Yrotation
                JOINT lMid2
                {
                  OFFSET 3.10165 -0.590103 1.0647
                  CHANNELS 3 Zrotation Xrotation Yrotation
                  End Site
                  {
                    OFFSET 2.48547 -0.328903 0.83742
                  }
                }
              }
              JOINT lRing1
              {
                OFFSET 8.82822 0.546677 1.51678
                CHANNELS 3 Zrotation Xrotation Yrotation
                JOINT lRing2
                {
                  OFFSET 2.60934 -0.819778 -0.0198488
                  CHANNELS 3 Zrotation Xrotation Yrotation
                  End Site
                  {
                    OFFSET 2.33842 -0.294052 0.168128
                  }
                }
              }
              JOINT lPinky1
              {
                OFFSET 8.27202 -0.0477905 -0.4584
                CHANNELS 3 Zrotation Xrotation Yrotation
                JOINT lPinky2
                {
                  OFFSET 1.82734 -0.647385 -0.700984
                  CHANNELS 3 Zrotation Xrotation Yrotation
                  End Site
                  {
                    OFFSET 1.69225 -0.51767 -0.607171
                  }
                }
              }
            }
          }
        }
      }
    }
  }
  JOINT rButtock
  {
    OFFSET -8.77824 4.35084 1.2192
    CHANNELS 3 Zrotation Xrotation Yrotation
    JOINT rThigh
    {
      OFFSET 0 -1.70687 -2.19456
      CHANNELS 3 Zrotation Xrotation Yrotation
      JOINT rShin
      {
        OFFSET 0 -36.8199 0.73152
        CHANNELS 3 Zrotation Xrotation Yrotation
        JOINT rFoot
        {
          OFFSET 0.73152 -45.1104 -5.12064
          CHANNELS 3 Zrotation Xrotation Yrotation
          End Site
          {
            OFFSET -1.1221 -3.69964 12.103
          }
        }
      }
    }
  }
  JOINT lButtock
  {
    OFFSET 8.77824 4.35084 1.2192
    CHANNELS 3 Zrotation Xrotation Yrotation
    JOINT lThigh
    {
      OFFSET 0 -1.70687 -2.19456
      CHANNELS 3 Zrotation Xrotation Yrotation
      JOINT lShin
      {
        OFFSET 0 -36.8199 0.73152
        CHANNELS 3 Zrotation Xrotation Yrotation
        JOINT lFoot
        {
          OFFSET -0.73152 -45.1104 -5.12064
          CHANNELS 3 Zrotation Xrotation Yrotation
          End Site
          {
            OFFSET 1.1221 -3.69964 12.103
          }
        }
      }
    }
  }
}
MOTION
Frames:	5
Frame Time:	0.00833333
-204.63 84.0179 -10.1495 0.0 0.0 0.0 -1.65551 -0.00357568 -0.0452724 -0.4571 0.000154948 -0.0791639 -8.93315e-15 0.0 -8.19987e-16 -2.67179e-14 3.18055e-15 -2.45996e-15 -0.0 0.0 0.0 -0.0 0.0 0.0 -4.47413e-15 -3.88251e-19 -3.47873e-16 -9.03041e-14 6.21202e-18 -7.95139e-15 -1.58108e-12 4.78475e-13 -1.43125e-13 -1.81195e-11 -4.83916e-13 -1.68887e-12 -4.27332e-11 -1.44062e-14 -3.95343e-12 -7.38068e-11 -2.8625e-14 -6.82945e-12 -4.27292e-11 -1.39149e-14 -3.95661e-12 7.73091 5.47488 0.417314 -4.27324e-11 -1.41137e-14 -3.95343e-12 2.90554 0.965183 0.102902 -4.2723e-11 -1.43125e-14 -3.95661e-12 10.2786 0.731801 0.0259123 -4.27313e-11 -1.59028e-14 -3.95343e-12 2.22167 -0.733487 -0.20892 -4.47147e-15 -3.88251e-19 -5.46658e-16 -9.50132e-14 3.10601e-16 -9.93923e-15 -1.58625e-12 -4.76089e-13 -1.49486e-13 -1.81255e-11 4.85184e-13 -1.67297e-12 -4.27531e-11 1.63396e-14 -3.96297e-12 -7.38254e-11 2.54444e-14 -6.82706e-12 -4.27602e-11 1.82882e-14 -3.95343e-12 -7.73091 5.47488 -0.417314 -4.27536e-11 1.6201e-14 -3.95979e-12 -2.90554 0.965183 -0.102902 -4.27599e-11 1.66979e-14 -3.95741e-12 -10.2786 0.731801 -0.0259123 -4.27459e-11 1.74931e-14 -3.95979e-12 -2.22167 -0.733487 0.20892 -2.03217e-16 0.0 -3.88251e-19 -0.803394 -1.9234 -0.0037177 -0.00881887 -2.07862 -0.0725749 -0.452082 3.99778 0.131439 2.03217e-16 0.0 3.88251e-19 -1.71757 -6.77988 0.164468 -0.00322863 6.71846 -0.0840759 0.482088 0.057283 -0.0558944
-199.925 82.9572 -13.2067 -18.5318 73.3531 -14.7951 -0.194064 6.19449 -0.966286 0.591618 -0.955555 -0.19464 -0.0329988 4.08515 1.29654 -1.83188 -13.5691 1.99959 -0.0 0.0 0.0 -0.0 0.0 0.0 4.82467e-14 4.79237e-13 -3.25041e-13 16.7196 17.1983 -2.2706 -7.44176 -4.42204 10.2728 0.00530418 -1.61561 -0.226733 -3.4839e-10 -8.23194e-10 9.21111e-10 -6.09488e-10 -1.42591e-09 1.59435e-09 -3.48387e-10 -8.23194e-10 9.21107e-10 7.73091 5.47488 0.417314 -3.48389e-10 -8.23194e-10 9.21111e-10 2.90554 0.965183 0.102902 -3.48382e-10 -8.23194e-10 9.2111e-10 10.2786 0.731801 0.0259123 -3.48389e-10 -8.23195e-10 9.21116e-10 2.22167 -0.733487 -0.20892 4.82106e-14 4.79227e-13 -3.25253e-13 -21.8227 10.3974 4.62398 9.13001 -5.99662 -11.693 -0.00127934 -0.793404 0.111467 -6.06609e-10 5.03314e-10 -3.45398e-10 -1.04595e-09 8.70976e-10 -6.00522e-10 -6.06615e-10 5.03316e-10 -3.45389e-10 -7.73091 5.47488 -0.417314 -6.06606e-10 5.03312e-10 -3.45397e-10 -2.90554 0.965183 -0.102902 -6.06617e-10 5.03314e-10 -3.45393e-10 -10.2786 0.731801 -0.0259123 -6.06603e-10 5.03314e-10 -3.45397e-10 -2.22167 -0.733487 0.20892 -2.03217e-16 0.0 -3.88251e-19 0.786787 -1.2259 2.94727 0.00649669 1.70184 0.0258598 -0.671126 -2.12646 -1.75043 2.03217e-16 0.0 3.88251e-19 1.69038 -12.6277 0.451102 0.0291355 14.5074 -0.171988 0.325838 -3.42165 -1.09709
-199.941 82.9521 -13.2063 -18.4376 73.3109 -14.6991 1.573 12.741 -1.97807 1.69636 -1.96635 -0.31711 -0.270857 8.39443 2.68911 -2.6181 -27.8546 4.52302 -0.0 0.0 0.0 -0.0 0.0 0.0 1.11771e-13 1.01371e-12 -6.98231e-13 36.1763 35.2841 -5.46787 -13.6069 -8.62129 21.3213 -0.00301318 -3.32337 -0.467011 -7.58144e-10 -1.76825e-09 1.97336e-09 -1.32607e-09 -3.06285e-09 3.41553e-09 -7.58142e-10 -1.76825e-09 1.97335e-09 7.73091 5.47488 0.417314 -7.58143e-10 -1.76825e-09 1.97336e-09 2.90554 0.965183 0.102902 -7.5814e-10 -1.76825e-09 1.97336e-09 10.2786 0.731801 0.0259123 -7.58145e-10 -1.76825e-09 1.97337e-09 2.22167 -0.733487 -0.20892 1.11695e-13 1.01369e-12 -6.98458e-13 -46.831 21.1568 10.0402 16.1527 -11.4978 -24.442 0.000726146 -1.63209 0.229369 -1.26382e-09 1.07373e-09 -7.24028e-10 -2.17911e-09 1.8581e-09 -1.25913e-09 -1.26382e-09 1.07373e-09 -7.24019e-10 -7.73091 5.47488 -0.417314 -1.26381e-09 1.07373e-09 -7.24029e-10 -2.90554 0.965183 -0.102902 -1.26383e-09 1.07373e-09 -7.24023e-10 -10.2786 0.731801 -0.0259123 -1.26381e-09 1.07373e-09 -7.24028e-10 -2.22167 -0.733487 0.20892 -2.03217e-16 0.0 -3.88251e-19 2.38991 -0.486298 6.06556 0.0085505 5.69361 0.130474 -1.34362 -8.58576 -3.77935 2.03217e-16 0.0 3.88251e-19 5.36095 -18.8094 0.7756 0.091693 22.7418 -0.275679 0.0219271 -7.09498 -2.21231
-200.144 82.9319 -13.2597 -18.998 73.8097 -15.0761 3.35459 18.5704 -2.94484 2.67748 -2.86691 -0.426043 -0.664135 12.2301 3.96998 -1.9038 -40.4763 7.67561 -0.0 0.0 0.0 -0.0 0.0 0.0 1.53688e-13 1.43771e-12 -9.74427e-13 56.2903 51.1691 -10.4127 -17.7439 -11.5605 31.4334 -0.0225638 -4.84652 -0.682368 -9.59702e-10 -2.46955e-09 2.77124e-09 -1.68085e-09 -4.27767e-09 4.7967e-09 -9.59701e-10 -2.46955e-09 2.77123e-09 7.73091 5.47488 0.417314 -9.59701e-10 -2.46955e-09 2.77124e-09 2.90554 0.965183 0.102902 -9.59701e-10 -2.46955e-09 2.77124e-09 10.2786 0.731801 0.0259123 -9.59704e-10 -2.46955e-09 2.77126e-09 2.22167 -0.733487 -0.20892 1.53575e-13 1.43768e-12 -9.74666e-13 -71.1182 30.314 15.8573 20.3534 -14.981 -36.3022 0.00542999 -2.38018 0.334658 -1.73432e-09 1.50991e-09 -1.02827e-09 -2.99019e-09 2.61288e-09 -1.78791e-09 -1.73432e-09 1.50991e-09 -1.02826e-09 -7.73091 5.47488 -0.417314 -1.73431e-09 1.5099e-09 -1.02827e-09 -2.90554 0.965183 -0.102902 -1.73433e-09 1.50991e-09 -1.02826e-09 -10.2786 0.731801 -0.0259123 -1.73432e-09 1.50991e-09 -1.02827e-09 -2.22167 -0.733487 0.20892 -2.03217e-16 0.0 -3.88251e-19 3.75231 0.162269 8.84724 -0.00213635 9.26269 0.22554 -2.34261 -14.3101 -5.68691 2.03217e-16 0.0 3.88251e-19 8.69852 -24.3207 1.09074 0.176922 30.0849 -0.384287 -0.371176 -10.3653 -3.22631
-200.157 82.9282 -13.2641 -18.8345 73.7815 -14.9186 4.72003 22.6263 -3.66957 3.35782 -3.49193 -0.500715 -1.04401 14.9057 4.89541 -0.115653 -49.1458 10.9097 -0.0 0.0 0.0 -0.0 0.0 0.0 1.41586e-13 1.58552e-12 -1.00814e-12 73.8191 61.8764 -17.0353 -19.9742 -12.9793 38.6174 -0.0430075 -5.90842 -0.83336 -6.4077e-10 -2.56148e-09 2.93322e-09 -1.13114e-09 -4.43719e-09 5.07786e-09 -6.40769e-10 -2.56148e-09 2.93321e-09 7.73091 5.47488 0.417314 -6.40769e-10 -2.56148e-09 2.93322e-09 2.90554 0.965183 0.102902 -6.40769e-10 -2.56148e-09 2.93322e-09 10.2786 0.731801 0.0259123 -6.40772e-10 -2.56147e-09 2.93324e-09 2.22167 -0.733487 -0.20892 1.41443e-13 1.58549e-12 -1.00838e-12 -89.4003 36.2943 20.7898 22.3587 -16.3054 -44.77 0.0103383 -2.90178 0.408172 -1.73805e-09 1.61049e-09 -1.14654e-09 -2.99601e-09 2.78678e-09 -1.99212e-09 -1.73805e-09 1.61049e-09 -1.14653e-09 -7.73091 5.47488 -0.417314 -1.73804e-09 1.61048e-09 -1.14654e-09 -2.90554 0.965183 -0.102902 -1.73806e-09 1.61048e-09 -1.14653e-09 -10.2786 0.731801 -0.0259123 -1.73805e-09 1.61048e-09 -1.14654e-09 -2.22167 -0.733487 0.20892 -2.03217e-16 0.0 -3.88251e-19 4.66571 0.593725 10.7875 -0.0169527 11.7751 0.293513 -3.27767 -18.2623 -7.10562 2.03217e-16 0.0 3.88251e-19 11.0612 -28.1585 1.32495 0.25676 35.1999 -0.473729 -0.713132 -12.6416 -3.94257
